<svg width="49" height="49" viewBox="0 0 49 49" fill="none" xmlns="http://www.w3.org/2000/svg">
<g clip-path="url(#clip0_20_5)">
<path d="M16.2403 0.173058C13.6467 0.441026 10.6225 1.50333 8.46917 2.89103C1.41585 7.44649 -1.65622 16.1172 1.04261 23.8979C1.76995 26.0225 1.90393 26.4436 2.08577 27.3432C2.66956 30.2717 2.29632 33.3246 0.985183 36.3584C0.927761 36.4828 1.01389 36.5402 1.47327 36.6455C2.29632 36.8274 4.37307 36.8082 5.09085 36.5977C6.33499 36.234 7.34944 35.6981 8.22991 34.9324C8.79456 34.4443 9.21565 34.2338 9.63674 34.2338C9.78987 34.2338 10.4311 34.4443 11.0532 34.7027C13.1778 35.6024 15.1397 36.033 17.4844 36.1191C25.3416 36.4063 32.2323 31.8699 35.0555 24.5486C35.4479 23.5342 35.8881 21.7924 36.0604 20.5483C36.2518 19.1606 36.2135 16.5287 35.9742 15.1889C35.3139 11.5043 33.7061 8.32696 31.1412 5.64728C27.294 1.61817 21.7432 -0.420302 16.2403 0.173058ZM9.60803 15.8397C10.2205 16.1555 10.5651 16.5 10.8426 17.0647C11.0723 17.524 11.0914 17.6676 11.0532 18.3279C11.0053 19.1606 10.8522 19.5147 10.3354 20.0315C9.83772 20.5387 9.23479 20.7779 8.48831 20.7684C7.75139 20.7684 7.32073 20.6057 6.76565 20.0984C5.74163 19.1893 5.61721 17.6484 6.46897 16.567C7.18675 15.6578 8.60315 15.3324 9.60803 15.8397ZM19.2166 15.8301C20.901 16.5766 21.2551 18.8639 19.877 20.0984C19.3219 20.6057 18.8912 20.7684 18.1543 20.7684C17.0729 20.7779 16.0776 20.1176 15.7043 19.1606C15.4555 18.4906 15.5416 17.4475 15.9053 16.8541C16.2115 16.366 16.891 15.8301 17.427 15.6674C17.8576 15.5334 18.7285 15.6195 19.2166 15.8301ZM28.5764 15.7248C29.2942 15.9354 30.0407 16.6818 30.2512 17.3805C30.3373 17.6676 30.4043 18.0408 30.4043 18.2035C30.4043 18.7299 30.1364 19.4477 29.7727 19.8592C28.4041 21.467 25.868 20.8928 25.2746 18.8543C24.8153 17.2848 26.069 15.61 27.7342 15.5813C27.916 15.5717 28.2989 15.6387 28.5764 15.7248Z" fill="#2050F8"/>
<path d="M39.2473 14.6338C39.5153 16.4426 39.5727 18.7682 39.3909 20.4334C38.3573 29.9272 31.1795 37.5451 21.7432 39.1529C20.2598 39.4113 18.2118 39.5166 16.8049 39.4018C16.0967 39.3539 15.4842 39.3061 15.4459 39.3061C15.3119 39.3061 15.8192 40.1291 16.5561 41.1244C17.4366 42.3111 19.0061 43.8807 20.2311 44.7898C25.5139 48.6945 32.395 49.4889 38.3764 46.857C39.5918 46.3211 40.0129 46.3594 40.8838 47.0963C42.7979 48.7232 45.0948 49.3645 47.4012 48.9242C47.8032 48.8477 48.1573 48.7615 48.186 48.7328C48.2147 48.7041 48.1477 48.4553 48.0328 48.1777C47.2481 46.2637 46.961 44.9334 46.894 42.8471C46.8366 40.8086 47.0088 39.574 47.6596 37.526C48.2338 35.7363 48.4444 34.942 48.6741 33.7553C49.4684 29.6305 49.0377 26.032 47.3438 22.4815C46.1092 19.907 44.444 17.8303 42.2332 16.0981C41.4102 15.4664 39.4674 14.2318 39.276 14.2318C39.2282 14.2318 39.209 14.3945 39.2473 14.6338Z" fill="#2050F8"/>
</g>
<defs>
<clipPath id="clip0_20_5">
<rect width="49" height="49" fill="white"/>
</clipPath>
</defs>
</svg>
